<?xml version="1.0" encoding="utf-8"?>
<!-- Generator: Adobe Illustrator 23.0.0, SVG Export Plug-In . SVG Version: 6.00 Build 0)  -->
<svg version="1.1" id="图层_1" xmlns="http://www.w3.org/2000/svg" xmlns:xlink="http://www.w3.org/1999/xlink" x="0px" y="0px"
	 viewBox="0 0 1024 1024" style="enable-background:new 0 0 1024 1024;" xml:space="preserve">
<style type="text/css">
	.st0{fill:#FB5555;}
</style>
<g>
	<path class="st0" d="M469.89,491.91c-89.62,5.97-161.31,50.73-161.31,110.41c0,59.67,71.7,101.45,161.31,98.46
		c89.61-2.99,161.31-56.68,161.31-119.33C631.2,524.73,559.48,488.89,469.89,491.91L469.89,491.91z M532.65,641.06
		c-26.89,35.84-83.65,50.76-134.42,23.92c-23.9-11.94-23.9-38.8-23.9-38.8s-11.94-83.54,77.66-92.5
		C541.61,521.73,559.57,608.27,532.65,641.06L532.65,641.06z M532.65,641.06"/>
	<g>
		<path class="st0" d="M469.93,587.42c-5.98,5.97-5.98,11.93-2.99,17.91c2.95,2.97,8.91,2.97,14.89,0
			c5.98-5.97,8.97-11.94,5.98-17.91C484.87,584.42,475.9,581.43,469.93,587.42L469.93,587.42z M431.08,596.35
			c-17.91,2.98-29.87,14.95-29.87,29.83c0,11.94,11.96,23.86,29.87,20.9c14.93,0,29.87-11.98,32.84-26.87
			C463.94,605.31,449,593.37,431.08,596.35L431.08,596.35z M431.08,596.35"/>
		<path class="st0" d="M511.71,65.22c-247.45,0-448.06,200.34-448.06,447.58c0,247.23,200.6,447.57,448.06,447.57
			c247.46,0,448.06-200.34,448.06-447.53C959.77,265.65,759.16,65.22,511.71,65.22L511.71,65.22z M711.88,620.26
			c-38.86,77.59-158.35,113.38-247.95,107.42c-86.6-5.97-194.16-32.85-206.12-134.24c0,0-5.97-44.77,38.83-104.44
			c0,0,65.69-86.49,140.39-113.37c77.72-23.91,86.63,17.9,86.63,41.78c-5.98,23.86-11.95,35.8,14.94,26.84
			c0,0,74.67-32.84,104.55-2.98c23.89,23.88,2.98,56.69,2.98,56.69s-8.95,11.87,11.98,14.85C682,515.79,747.7,548.59,711.88,620.26
			L711.88,620.26z M720.83,447.15c-2.99,11.94-8.96,17.91-20.92,17.91c-8.96,0-17.92-8.95-17.92-17.91v-8.96
			c0-26.84-20.93-50.72-50.78-50.72c-8.98,0-17.93-8.95-17.93-17.9c0-8.95,8.96-17.9,17.93-17.9c50.77,0,89.6,38.8,89.6,86.49v8.95
			L720.83,447.15z M789.52,462.07v6.02c-2.97,8.95-11.94,14.92-23.89,11.92c-5.58,0.14-10.98-2.02-14.93-5.96
			c-3.95-3.94-6.11-9.34-5.98-14.92v-3.03c2.98-6,2.98-14.91,2.98-20.88c0-62.67-53.75-113.39-116.47-113.39
			c-5.59,0.14-10.98-2.01-14.94-5.96c-3.96-3.95-6.12-9.34-5.99-14.93c0-11.92,8.96-20.8,20.95-20.89
			c89.6,0,161.29,71.62,161.29,158.14C792.51,447.18,789.52,453.12,789.52,462.07L789.52,462.07z M789.52,462.07"/>
	</g>
</g>
</svg>
