<?xml version="1.0" encoding="utf-8"?>
<!-- Generator: Adobe Illustrator 23.0.0, SVG Export Plug-In . SVG Version: 6.00 Build 0)  -->
<svg version="1.1" id="图层_1" xmlns="http://www.w3.org/2000/svg" xmlns:xlink="http://www.w3.org/1999/xlink" x="0px" y="0px"
	 viewBox="0 0 1024 1024" style="enable-background:new 0 0 1024 1024;" xml:space="preserve">
<style type="text/css">
	.st0{fill:#07C160;}
</style>
<g>
	<g>
		<path class="st0" d="M511,958.46c-246.51,0-446.34-199.83-446.34-446.33C64.67,265.62,264.5,65.79,511,65.79
			c246.5,0,446.33,199.83,446.33,446.34C957.33,758.63,757.5,958.46,511,958.46L511,958.46z M776.01,576.4
			c0-73.52-73.43-133.4-156.04-133.4c-87.52,0-156.25,59.87-156.25,133.4c0,73.71,68.73,133.38,156.25,133.38
			c18.31,0,36.83-4.68,55.12-9.14l50.44,27.68l-13.8-46.01C748.54,654.62,776.01,617.76,776.01,576.4L776.01,576.4z M569.29,553.39
			c-9.13,0-18.29-9.15-18.29-18.34c0-9.13,9.16-18.31,18.29-18.31c13.85,0,23.01,9.17,23.01,18.31
			C592.3,544.24,583.14,553.39,569.29,553.39L569.29,553.39z M670.43,553.39c-9.14,0-18.27-9.15-18.27-18.34
			c0-9.13,9.13-18.31,18.27-18.31c13.82,0,22.99,9.17,22.99,18.31C693.42,544.24,684.03,553.39,670.43,553.39L670.43,553.39z
			 M604.81,426.76c6.02,0,12.06,0.42,18.07,1.04c-16.19-75.72-96.99-131.86-189.27-131.86c-103.06,0-187.62,70.3-187.62,159.73
			c0,51.59,28.06,94.01,75.01,126.88l-18.69,56.56l65.65-33.05c23.48,4.57,42.38,9.36,65.65,9.36c5.81,0,11.65-0.21,17.47-0.81
			c-3.74-12.5-5.82-25.78-5.82-39.32C445.24,493.32,515.69,426.76,604.81,426.76L604.81,426.76z M503.83,375.8
			c14.12,0,23.46,9.36,23.46,23.51c0,14.13-9.35,23.49-23.47,23.49c-14.13,0-28.24-9.36-28.24-23.49
			C475.79,385.15,489.89,375.8,503.83,375.8L503.83,375.8z M372.52,422.78c-14.13,0-28.24-9.35-28.24-23.49
			c0-14.15,14.12-23.5,28.24-23.5c14.15,0,23.5,9.36,23.5,23.5C396.01,413.23,386.67,422.78,372.52,422.78L372.52,422.78z
			 M372.52,422.78"/>
	</g>
</g>
</svg>
